<?xml version="1.0" encoding="UTF-8" standalone="no"?>
<!DOCTYPE svg PUBLIC "-//W3C//DTD SVG 1.1//EN"
 "http://www.w3.org/Graphics/SVG/1.1/DTD/svg11.dtd">
<!-- Generated by graphviz version 12.2.0 (20241103.1931)
 -->
<!-- Title: pt Pages: 1 -->
<svg width="3021pt" height="763pt"
 viewBox="0.00 0.00 3020.80 763.00" xmlns="http://www.w3.org/2000/svg" xmlns:xlink="http://www.w3.org/1999/xlink">
<g id="graph0" class="graph" transform="scale(1 1) rotate(0) translate(4 759)">
<title>pt</title>
<polygon fill="white" stroke="none" points="-4,4 -4,-759 3016.8,-759 3016.8,4 -4,4"/>
<!-- 3118720911200 -->
<g id="node1" class="node">
<title>3118720911200</title>
<ellipse fill="none" stroke="black" cx="27" cy="-680" rx="27" ry="18"/>
<text text-anchor="middle" x="27" y="-674.38" font-family="Times New Roman,serif" font-size="15.00">seq</text>
</g>
<!-- 3118720912544 -->
<g id="node2" class="node">
<title>3118720912544</title>
<ellipse fill="none" stroke="black" cx="137" cy="-707" rx="47" ry="18"/>
<text text-anchor="middle" x="137" y="-701.38" font-family="Times New Roman,serif" font-size="15.00">xor loop</text>
</g>
<!-- 3118720911200&#45;&#45;3118720912544 -->
<g id="edge3" class="edge">
<title>3118720911200&#45;&#45;3118720912544</title>
<path fill="none" stroke="black" d="M52.78,-686.19C65.86,-689.46 82.21,-693.55 96.94,-697.24"/>
</g>
<!-- 3119137371040 -->
<g id="node5" class="node">
<title>3119137371040</title>
<ellipse fill="none" stroke="black" cx="137" cy="-653" rx="27" ry="18"/>
<text text-anchor="middle" x="137" y="-647.38" font-family="Times New Roman,serif" font-size="15.00">xor</text>
</g>
<!-- 3118720911200&#45;&#45;3119137371040 -->
<g id="edge92" class="edge">
<title>3118720911200&#45;&#45;3119137371040</title>
<path fill="none" stroke="black" d="M52.78,-673.81C70.34,-669.42 93.8,-663.55 111.34,-659.17"/>
</g>
<!-- 3119137372768 -->
<g id="node3" class="node">
<title>3119137372768</title>
<ellipse fill="none" stroke="black" cx="254.9" cy="-737" rx="34.9" ry="18"/>
<text text-anchor="middle" x="254.9" y="-731.38" font-family="Times New Roman,serif" font-size="15.00">NEW</text>
</g>
<!-- 3118720912544&#45;&#45;3119137372768 -->
<g id="edge1" class="edge">
<title>3118720912544&#45;&#45;3119137372768</title>
<path fill="none" stroke="black" d="M176.59,-716.99C191.74,-720.91 208.87,-725.35 223.16,-729.04"/>
</g>
<!-- 3119137372816 -->
<g id="node4" class="node">
<title>3119137372816</title>
<ellipse fill="black" stroke="black" cx="254.9" cy="-699" rx="1.8" ry="1.8"/>
</g>
<!-- 3118720912544&#45;&#45;3119137372816 -->
<g id="edge2" class="edge">
<title>3118720912544&#45;&#45;3119137372816</title>
<path fill="none" stroke="black" d="M183.47,-703.86C212.9,-701.83 246.83,-699.49 252.93,-699.07"/>
</g>
<!-- 3119137373344 -->
<g id="node6" class="node">
<title>3119137373344</title>
<ellipse fill="black" stroke="black" cx="254.9" cy="-661" rx="1.8" ry="1.8"/>
</g>
<!-- 3119137371040&#45;&#45;3119137373344 -->
<g id="edge4" class="edge">
<title>3119137371040&#45;&#45;3119137373344</title>
<path fill="none" stroke="black" d="M164.3,-654.82C195.82,-656.99 245.37,-660.41 252.92,-660.93"/>
</g>
<!-- 3119137371952 -->
<g id="node7" class="node">
<title>3119137371952</title>
<ellipse fill="none" stroke="black" cx="254.9" cy="-623" rx="27" ry="18"/>
<text text-anchor="middle" x="254.9" y="-617.38" font-family="Times New Roman,serif" font-size="15.00">and</text>
</g>
<!-- 3119137371040&#45;&#45;3119137371952 -->
<g id="edge91" class="edge">
<title>3119137371040&#45;&#45;3119137371952</title>
<path fill="none" stroke="black" d="M162.58,-646.64C182.25,-641.55 209.69,-634.44 229.35,-629.35"/>
</g>
<!-- 3119137373920 -->
<g id="node8" class="node">
<title>3119137373920</title>
<ellipse fill="none" stroke="black" cx="352.8" cy="-650" rx="27" ry="18"/>
<text text-anchor="middle" x="352.8" y="-644.38" font-family="Times New Roman,serif" font-size="15.00">xor</text>
</g>
<!-- 3119137371952&#45;&#45;3119137373920 -->
<g id="edge9" class="edge">
<title>3119137371952&#45;&#45;3119137373920</title>
<path fill="none" stroke="black" d="M280.1,-629.81C294.63,-633.91 313.07,-639.1 327.6,-643.19"/>
</g>
<!-- 3119137373968 -->
<g id="node13" class="node">
<title>3119137373968</title>
<ellipse fill="none" stroke="black" cx="352.8" cy="-596" rx="27" ry="18"/>
<text text-anchor="middle" x="352.8" y="-590.38" font-family="Times New Roman,serif" font-size="15.00">xor</text>
</g>
<!-- 3119137371952&#45;&#45;3119137373968 -->
<g id="edge90" class="edge">
<title>3119137371952&#45;&#45;3119137373968</title>
<path fill="none" stroke="black" d="M280.1,-616.19C294.63,-612.09 313.07,-606.9 327.6,-602.81"/>
</g>
<!-- 3119137371616 -->
<g id="node9" class="node">
<title>3119137371616</title>
<ellipse fill="black" stroke="black" cx="462.79" cy="-684" rx="1.8" ry="1.8"/>
</g>
<!-- 3119137373920&#45;&#45;3119137371616 -->
<g id="edge5" class="edge">
<title>3119137373920&#45;&#45;3119137371616</title>
<path fill="none" stroke="black" d="M377.76,-657.55C407.1,-666.78 453.76,-681.47 460.87,-683.71"/>
</g>
<!-- 3119137369744 -->
<g id="node10" class="node">
<title>3119137369744</title>
<ellipse fill="none" stroke="black" cx="462.79" cy="-646" rx="47" ry="18"/>
<text text-anchor="middle" x="462.79" y="-640.38" font-family="Times New Roman,serif" font-size="15.00">xor loop</text>
</g>
<!-- 3119137373920&#45;&#45;3119137369744 -->
<g id="edge8" class="edge">
<title>3119137373920&#45;&#45;3119137369744</title>
<path fill="none" stroke="black" d="M380.22,-649.02C390.96,-648.62 403.69,-648.15 415.86,-647.7"/>
</g>
<!-- 3119137370272 -->
<g id="node11" class="node">
<title>3119137370272</title>
<ellipse fill="none" stroke="black" cx="593.85" cy="-673" rx="48.05" ry="18"/>
<text text-anchor="middle" x="593.85" y="-667.38" font-family="Times New Roman,serif" font-size="15.00">BILLED</text>
</g>
<!-- 3119137369744&#45;&#45;3119137370272 -->
<g id="edge6" class="edge">
<title>3119137369744&#45;&#45;3119137370272</title>
<path fill="none" stroke="black" d="M504.63,-654.54C519.54,-657.66 536.42,-661.19 551.39,-664.33"/>
</g>
<!-- 3119137364704 -->
<g id="node12" class="node">
<title>3119137364704</title>
<ellipse fill="black" stroke="black" cx="593.85" cy="-635" rx="1.8" ry="1.8"/>
</g>
<!-- 3119137369744&#45;&#45;3119137364704 -->
<g id="edge7" class="edge">
<title>3119137369744&#45;&#45;3119137364704</title>
<path fill="none" stroke="black" d="M508.93,-642.15C542.66,-639.28 584.17,-635.74 591.66,-635.1"/>
</g>
<!-- 3119137369312 -->
<g id="node14" class="node">
<title>3119137369312</title>
<ellipse fill="black" stroke="black" cx="462.79" cy="-600" rx="1.8" ry="1.8"/>
</g>
<!-- 3119137373968&#45;&#45;3119137369312 -->
<g id="edge10" class="edge">
<title>3119137373968&#45;&#45;3119137369312</title>
<path fill="none" stroke="black" d="M380.22,-596.98C409.19,-598.05 452.65,-599.66 460.54,-599.95"/>
</g>
<!-- 3119137360144 -->
<g id="node15" class="node">
<title>3119137360144</title>
<ellipse fill="none" stroke="black" cx="462.79" cy="-562" rx="27" ry="18"/>
<text text-anchor="middle" x="462.79" y="-556.38" font-family="Times New Roman,serif" font-size="15.00">seq</text>
</g>
<!-- 3119137373968&#45;&#45;3119137360144 -->
<g id="edge89" class="edge">
<title>3119137373968&#45;&#45;3119137360144</title>
<path fill="none" stroke="black" d="M377.76,-588.45C395.66,-582.82 420.01,-575.15 437.89,-569.52"/>
</g>
<!-- 3119137364176 -->
<g id="node16" class="node">
<title>3119137364176</title>
<ellipse fill="none" stroke="black" cx="593.85" cy="-574" rx="27" ry="18"/>
<text text-anchor="middle" x="593.85" y="-568.38" font-family="Times New Roman,serif" font-size="15.00">and</text>
</g>
<!-- 3119137360144&#45;&#45;3119137364176 -->
<g id="edge85" class="edge">
<title>3119137360144&#45;&#45;3119137364176</title>
<path fill="none" stroke="black" d="M489.91,-564.43C512.3,-566.51 544.39,-569.49 566.77,-571.58"/>
</g>
<!-- 3119137364320 -->
<g id="node91" class="node">
<title>3119137364320</title>
<ellipse fill="none" stroke="black" cx="593.85" cy="-520" rx="27" ry="18"/>
<text text-anchor="middle" x="593.85" y="-514.38" font-family="Times New Roman,serif" font-size="15.00">xor</text>
</g>
<!-- 3119137360144&#45;&#45;3119137364320 -->
<g id="edge88" class="edge">
<title>3119137360144&#45;&#45;3119137364320</title>
<path fill="none" stroke="black" d="M487.46,-554.3C510.75,-546.72 546.09,-535.22 569.33,-527.65"/>
</g>
<!-- 3119137358176 -->
<g id="node17" class="node">
<title>3119137358176</title>
<ellipse fill="none" stroke="black" cx="756.99" cy="-624" rx="27" ry="18"/>
<text text-anchor="middle" x="756.99" y="-618.38" font-family="Times New Roman,serif" font-size="15.00">xor</text>
</g>
<!-- 3119137364176&#45;&#45;3119137358176 -->
<g id="edge15" class="edge">
<title>3119137364176&#45;&#45;3119137358176</title>
<path fill="none" stroke="black" d="M618.97,-581.49C649.44,-590.94 701.54,-607.11 731.96,-616.55"/>
</g>
<!-- 3119137373872 -->
<g id="node22" class="node">
<title>3119137373872</title>
<ellipse fill="none" stroke="black" cx="756.99" cy="-570" rx="27" ry="18"/>
<text text-anchor="middle" x="756.99" y="-564.38" font-family="Times New Roman,serif" font-size="15.00">xor</text>
</g>
<!-- 3119137364176&#45;&#45;3119137373872 -->
<g id="edge84" class="edge">
<title>3119137364176&#45;&#45;3119137373872</title>
<path fill="none" stroke="black" d="M621.09,-573.35C651.06,-572.6 699.79,-571.4 729.75,-570.65"/>
</g>
<!-- 3119137371424 -->
<g id="node18" class="node">
<title>3119137371424</title>
<ellipse fill="black" stroke="black" cx="919.08" cy="-658" rx="1.8" ry="1.8"/>
</g>
<!-- 3119137358176&#45;&#45;3119137371424 -->
<g id="edge11" class="edge">
<title>3119137358176&#45;&#45;3119137371424</title>
<path fill="none" stroke="black" d="M783,-629.31C825.21,-638.28 907,-655.65 917.06,-657.78"/>
</g>
<!-- 3119137371664 -->
<g id="node19" class="node">
<title>3119137371664</title>
<ellipse fill="none" stroke="black" cx="919.08" cy="-620" rx="47" ry="18"/>
<text text-anchor="middle" x="919.08" y="-614.38" font-family="Times New Roman,serif" font-size="15.00">xor loop</text>
</g>
<!-- 3119137358176&#45;&#45;3119137371664 -->
<g id="edge14" class="edge">
<title>3119137358176&#45;&#45;3119137371664</title>
<path fill="none" stroke="black" d="M784.42,-623.34C808.14,-622.75 843.46,-621.86 871.85,-621.16"/>
</g>
<!-- 3119137371328 -->
<g id="node20" class="node">
<title>3119137371328</title>
<ellipse fill="none" stroke="black" cx="1052.23" cy="-647" rx="50.16" ry="18"/>
<text text-anchor="middle" x="1052.23" y="-641.38" font-family="Times New Roman,serif" font-size="15.00">DELETE</text>
</g>
<!-- 3119137371664&#45;&#45;3119137371328 -->
<g id="edge12" class="edge">
<title>3119137371664&#45;&#45;3119137371328</title>
<path fill="none" stroke="black" d="M961.22,-628.47C976.09,-631.53 992.92,-635 1007.98,-638.09"/>
</g>
<!-- 3119137372336 -->
<g id="node21" class="node">
<title>3119137372336</title>
<ellipse fill="black" stroke="black" cx="1052.23" cy="-609" rx="1.8" ry="1.8"/>
</g>
<!-- 3119137371664&#45;&#45;3119137372336 -->
<g id="edge13" class="edge">
<title>3119137371664&#45;&#45;3119137372336</title>
<path fill="none" stroke="black" d="M965.22,-616.21C999.6,-613.33 1042.31,-609.75 1050.01,-609.1"/>
</g>
<!-- 3119137367824 -->
<g id="node23" class="node">
<title>3119137367824</title>
<ellipse fill="black" stroke="black" cx="919.08" cy="-574" rx="1.8" ry="1.8"/>
</g>
<!-- 3119137373872&#45;&#45;3119137367824 -->
<g id="edge16" class="edge">
<title>3119137373872&#45;&#45;3119137367824</title>
<path fill="none" stroke="black" d="M784.42,-570.66C826.7,-571.72 905.89,-573.7 916.82,-573.97"/>
</g>
<!-- 3119137369840 -->
<g id="node24" class="node">
<title>3119137369840</title>
<ellipse fill="none" stroke="black" cx="919.08" cy="-536" rx="27" ry="18"/>
<text text-anchor="middle" x="919.08" y="-530.38" font-family="Times New Roman,serif" font-size="15.00">seq</text>
</g>
<!-- 3119137373872&#45;&#45;3119137369840 -->
<g id="edge83" class="edge">
<title>3119137373872&#45;&#45;3119137369840</title>
<path fill="none" stroke="black" d="M783,-564.69C812.99,-558.32 862.95,-547.71 892.98,-541.33"/>
</g>
<!-- 3119137374064 -->
<g id="node25" class="node">
<title>3119137374064</title>
<ellipse fill="none" stroke="black" cx="1052.23" cy="-548" rx="47" ry="18"/>
<text text-anchor="middle" x="1052.23" y="-542.38" font-family="Times New Roman,serif" font-size="15.00">xor loop</text>
</g>
<!-- 3119137369840&#45;&#45;3119137374064 -->
<g id="edge79" class="edge">
<title>3119137369840&#45;&#45;3119137374064</title>
<path fill="none" stroke="black" d="M946.31,-538.4C963.42,-539.97 986.22,-542.05 1006.19,-543.88"/>
</g>
<!-- 3119137365760 -->
<g id="node88" class="node">
<title>3119137365760</title>
<ellipse fill="none" stroke="black" cx="1052.23" cy="-494" rx="27" ry="18"/>
<text text-anchor="middle" x="1052.23" y="-488.38" font-family="Times New Roman,serif" font-size="15.00">xor</text>
</g>
<!-- 3119137369840&#45;&#45;3119137365760 -->
<g id="edge82" class="edge">
<title>3119137369840&#45;&#45;3119137365760</title>
<path fill="none" stroke="black" d="M943.83,-528.39C967.6,-520.78 1003.95,-509.14 1027.66,-501.55"/>
</g>
<!-- 3119137359664 -->
<g id="node26" class="node">
<title>3119137359664</title>
<ellipse fill="none" stroke="black" cx="1184.86" cy="-578" rx="27" ry="18"/>
<text text-anchor="middle" x="1184.86" y="-572.38" font-family="Times New Roman,serif" font-size="15.00">xor</text>
</g>
<!-- 3119137374064&#45;&#45;3119137359664 -->
<g id="edge77" class="edge">
<title>3119137374064&#45;&#45;3119137359664</title>
<path fill="none" stroke="black" d="M1093.14,-557.16C1114.6,-562.09 1140.39,-568.02 1158.98,-572.29"/>
</g>
<!-- 3119137373296 -->
<g id="node87" class="node">
<title>3119137373296</title>
<ellipse fill="black" stroke="black" cx="1184.86" cy="-540" rx="1.8" ry="1.8"/>
</g>
<!-- 3119137374064&#45;&#45;3119137373296 -->
<g id="edge78" class="edge">
<title>3119137374064&#45;&#45;3119137373296</title>
<path fill="none" stroke="black" d="M1098.92,-545.2C1133.06,-543.11 1175.08,-540.54 1182.66,-540.07"/>
</g>
<!-- 3119137373584 -->
<g id="node27" class="node">
<title>3119137373584</title>
<ellipse fill="none" stroke="black" cx="1356.95" cy="-632" rx="89.61" ry="18"/>
<text text-anchor="middle" x="1356.95" y="-626.38" font-family="Times New Roman,serif" font-size="15.00">CHANGE DIAGN</text>
</g>
<!-- 3119137359664&#45;&#45;3119137373584 -->
<g id="edge17" class="edge">
<title>3119137359664&#45;&#45;3119137373584</title>
<path fill="none" stroke="black" d="M1209.87,-585.62C1235.15,-593.65 1275.62,-606.5 1307.56,-616.64"/>
</g>
<!-- 3119137370944 -->
<g id="node28" class="node">
<title>3119137370944</title>
<ellipse fill="none" stroke="black" cx="1356.95" cy="-578" rx="77.51" ry="18"/>
<text text-anchor="middle" x="1356.95" y="-572.38" font-family="Times New Roman,serif" font-size="15.00">CHANGE END</text>
</g>
<!-- 3119137359664&#45;&#45;3119137370944 -->
<g id="edge18" class="edge">
<title>3119137359664&#45;&#45;3119137370944</title>
<path fill="none" stroke="black" d="M1212.07,-578C1230.14,-578 1255.18,-578 1279.31,-578"/>
</g>
<!-- 3119137371472 -->
<g id="node29" class="node">
<title>3119137371472</title>
<ellipse fill="none" stroke="black" cx="1356.95" cy="-524" rx="27" ry="18"/>
<text text-anchor="middle" x="1356.95" y="-518.38" font-family="Times New Roman,serif" font-size="15.00">seq</text>
</g>
<!-- 3119137359664&#45;&#45;3119137371472 -->
<g id="edge76" class="edge">
<title>3119137359664&#45;&#45;3119137371472</title>
<path fill="none" stroke="black" d="M1209.87,-570.38C1242.29,-560.09 1299.71,-541.86 1332.06,-531.58"/>
</g>
<!-- 3119137370320 -->
<g id="node30" class="node">
<title>3119137370320</title>
<ellipse fill="none" stroke="black" cx="1509.56" cy="-570" rx="27" ry="18"/>
<text text-anchor="middle" x="1509.56" y="-564.38" font-family="Times New Roman,serif" font-size="15.00">xor</text>
</g>
<!-- 3119137371472&#45;&#45;3119137370320 -->
<g id="edge22" class="edge">
<title>3119137371472&#45;&#45;3119137370320</title>
<path fill="none" stroke="black" d="M1382.15,-531.39C1410.26,-539.97 1456.35,-554.05 1484.43,-562.63"/>
</g>
<!-- 3119137370992 -->
<g id="node34" class="node">
<title>3119137370992</title>
<ellipse fill="none" stroke="black" cx="1509.56" cy="-497" rx="27" ry="18"/>
<text text-anchor="middle" x="1509.56" y="-491.38" font-family="Times New Roman,serif" font-size="15.00">xor</text>
</g>
<!-- 3119137371472&#45;&#45;3119137370992 -->
<g id="edge75" class="edge">
<title>3119137371472&#45;&#45;3119137370992</title>
<path fill="none" stroke="black" d="M1383.5,-519.42C1411.28,-514.44 1455.41,-506.53 1483.14,-501.56"/>
</g>
<!-- 3119137372480 -->
<g id="node31" class="node">
<title>3119137372480</title>
<ellipse fill="black" stroke="black" cx="1642.19" cy="-627" rx="1.8" ry="1.8"/>
</g>
<!-- 3119137370320&#45;&#45;3119137372480 -->
<g id="edge19" class="edge">
<title>3119137370320&#45;&#45;3119137372480</title>
<path fill="none" stroke="black" d="M1532.72,-579.67C1567.37,-594.79 1631.34,-622.7 1640.17,-626.56"/>
</g>
<!-- 3119137374016 -->
<g id="node32" class="node">
<title>3119137374016</title>
<ellipse fill="none" stroke="black" cx="1642.19" cy="-589" rx="54.89" ry="18"/>
<text text-anchor="middle" x="1642.19" y="-583.38" font-family="Times New Roman,serif" font-size="15.00">JOIN&#45;PAT</text>
</g>
<!-- 3119137370320&#45;&#45;3119137374016 -->
<g id="edge20" class="edge">
<title>3119137370320&#45;&#45;3119137374016</title>
<path fill="none" stroke="black" d="M1536.37,-573.75C1552.06,-576.04 1572.62,-579.03 1591.37,-581.75"/>
</g>
<!-- 3119137373536 -->
<g id="node33" class="node">
<title>3119137373536</title>
<ellipse fill="none" stroke="black" cx="1642.19" cy="-535" rx="69.62" ry="18"/>
<text text-anchor="middle" x="1642.19" y="-529.38" font-family="Times New Roman,serif" font-size="15.00">SET STATUS</text>
</g>
<!-- 3119137370320&#45;&#45;3119137373536 -->
<g id="edge21" class="edge">
<title>3119137370320&#45;&#45;3119137373536</title>
<path fill="none" stroke="black" d="M1535.13,-563.42C1551.32,-559.08 1573.06,-553.25 1592.64,-548.01"/>
</g>
<!-- 3119137367680 -->
<g id="node35" class="node">
<title>3119137367680</title>
<ellipse fill="black" stroke="black" cx="1642.19" cy="-497" rx="1.8" ry="1.8"/>
</g>
<!-- 3119137370992&#45;&#45;3119137367680 -->
<g id="edge23" class="edge">
<title>3119137370992&#45;&#45;3119137367680</title>
<path fill="none" stroke="black" d="M1537,-497C1572.18,-497 1631.04,-497 1640.02,-497"/>
</g>
<!-- 3119137372288 -->
<g id="node36" class="node">
<title>3119137372288</title>
<ellipse fill="none" stroke="black" cx="1642.19" cy="-459" rx="27" ry="18"/>
<text text-anchor="middle" x="1642.19" y="-453.38" font-family="Times New Roman,serif" font-size="15.00">and</text>
</g>
<!-- 3119137370992&#45;&#45;3119137372288 -->
<g id="edge74" class="edge">
<title>3119137370992&#45;&#45;3119137372288</title>
<path fill="none" stroke="black" d="M1534.83,-489.94C1558.29,-483.12 1593.64,-472.83 1617.05,-466.02"/>
</g>
<!-- 3119137367776 -->
<g id="node37" class="node">
<title>3119137367776</title>
<ellipse fill="none" stroke="black" cx="1774.81" cy="-516" rx="27" ry="18"/>
<text text-anchor="middle" x="1774.81" y="-510.38" font-family="Times New Roman,serif" font-size="15.00">xor</text>
</g>
<!-- 3119137372288&#45;&#45;3119137367776 -->
<g id="edge28" class="edge">
<title>3119137372288&#45;&#45;3119137367776</title>
<path fill="none" stroke="black" d="M1665.34,-468.67C1689.36,-479.15 1727.48,-495.78 1751.54,-506.28"/>
</g>
<!-- 3119137363552 -->
<g id="node42" class="node">
<title>3119137363552</title>
<ellipse fill="none" stroke="black" cx="1774.81" cy="-429" rx="27" ry="18"/>
<text text-anchor="middle" x="1774.81" y="-423.38" font-family="Times New Roman,serif" font-size="15.00">seq</text>
</g>
<!-- 3119137372288&#45;&#45;3119137363552 -->
<g id="edge73" class="edge">
<title>3119137372288&#45;&#45;3119137363552</title>
<path fill="none" stroke="black" d="M1668.06,-453.29C1691.31,-447.95 1725.81,-440.02 1749.02,-434.69"/>
</g>
<!-- 3119137365040 -->
<g id="node38" class="node">
<title>3119137365040</title>
<ellipse fill="black" stroke="black" cx="1884.81" cy="-554" rx="1.8" ry="1.8"/>
</g>
<!-- 3119137367776&#45;&#45;3119137365040 -->
<g id="edge24" class="edge">
<title>3119137367776&#45;&#45;3119137365040</title>
<path fill="none" stroke="black" d="M1799.24,-524.25C1828.52,-534.55 1875.69,-551.14 1882.88,-553.67"/>
</g>
<!-- 3119137365328 -->
<g id="node39" class="node">
<title>3119137365328</title>
<ellipse fill="none" stroke="black" cx="1884.81" cy="-516" rx="47" ry="18"/>
<text text-anchor="middle" x="1884.81" y="-510.38" font-family="Times New Roman,serif" font-size="15.00">xor loop</text>
</g>
<!-- 3119137367776&#45;&#45;3119137365328 -->
<g id="edge27" class="edge">
<title>3119137367776&#45;&#45;3119137365328</title>
<path fill="none" stroke="black" d="M1802.23,-516C1812.84,-516 1825.4,-516 1837.45,-516"/>
</g>
<!-- 3119137367440 -->
<g id="node40" class="node">
<title>3119137367440</title>
<ellipse fill="none" stroke="black" cx="2043.74" cy="-554" rx="75.94" ry="18"/>
<text text-anchor="middle" x="2043.74" y="-548.38" font-family="Times New Roman,serif" font-size="15.00">CODE ERROR</text>
</g>
<!-- 3119137365328&#45;&#45;3119137367440 -->
<g id="edge25" class="edge">
<title>3119137365328&#45;&#45;3119137367440</title>
<path fill="none" stroke="black" d="M1925.41,-525.59C1944.75,-530.27 1968.3,-535.98 1989.22,-541.04"/>
</g>
<!-- 3119137370848 -->
<g id="node41" class="node">
<title>3119137370848</title>
<ellipse fill="black" stroke="black" cx="2043.74" cy="-516" rx="1.8" ry="1.8"/>
</g>
<!-- 3119137365328&#45;&#45;3119137370848 -->
<g id="edge26" class="edge">
<title>3119137365328&#45;&#45;3119137370848</title>
<path fill="none" stroke="black" d="M1932.04,-516C1974.72,-516 2032.79,-516 2041.6,-516"/>
</g>
<!-- 3119137363456 -->
<g id="node43" class="node">
<title>3119137363456</title>
<ellipse fill="none" stroke="black" cx="1884.81" cy="-456" rx="27" ry="18"/>
<text text-anchor="middle" x="1884.81" y="-450.38" font-family="Times New Roman,serif" font-size="15.00">xor</text>
</g>
<!-- 3119137363552&#45;&#45;3119137363456 -->
<g id="edge33" class="edge">
<title>3119137363552&#45;&#45;3119137363456</title>
<path fill="none" stroke="black" d="M1800.59,-435.19C1818.15,-439.58 1841.61,-445.45 1859.15,-449.83"/>
</g>
<!-- 3119137367584 -->
<g id="node48" class="node">
<title>3119137367584</title>
<ellipse fill="none" stroke="black" cx="1884.81" cy="-391" rx="27" ry="18"/>
<text text-anchor="middle" x="1884.81" y="-385.38" font-family="Times New Roman,serif" font-size="15.00">xor</text>
</g>
<!-- 3119137363552&#45;&#45;3119137367584 -->
<g id="edge37" class="edge">
<title>3119137363552&#45;&#45;3119137367584</title>
<path fill="none" stroke="black" d="M1799.24,-420.75C1817.36,-414.38 1842.32,-405.6 1860.42,-399.23"/>
</g>
<!-- 3119137364368 -->
<g id="node52" class="node">
<title>3119137364368</title>
<ellipse fill="none" stroke="black" cx="1884.81" cy="-288" rx="27" ry="18"/>
<text text-anchor="middle" x="1884.81" y="-282.38" font-family="Times New Roman,serif" font-size="15.00">xor</text>
</g>
<!-- 3119137363552&#45;&#45;3119137364368 -->
<g id="edge72" class="edge">
<title>3119137363552&#45;&#45;3119137364368</title>
<path fill="none" stroke="black" d="M1787.99,-413.1C1808.73,-386.02 1850.68,-331.25 1871.51,-304.06"/>
</g>
<!-- 3119137364224 -->
<g id="node44" class="node">
<title>3119137364224</title>
<ellipse fill="black" stroke="black" cx="2043.74" cy="-494" rx="1.8" ry="1.8"/>
</g>
<!-- 3119137363456&#45;&#45;3119137364224 -->
<g id="edge29" class="edge">
<title>3119137363456&#45;&#45;3119137364224</title>
<path fill="none" stroke="black" d="M1910.67,-462.02C1951.81,-471.98 2030.61,-491.06 2041.48,-493.7"/>
</g>
<!-- 3119137369264 -->
<g id="node45" class="node">
<title>3119137369264</title>
<ellipse fill="none" stroke="black" cx="2043.74" cy="-456" rx="47" ry="18"/>
<text text-anchor="middle" x="2043.74" y="-450.38" font-family="Times New Roman,serif" font-size="15.00">xor loop</text>
</g>
<!-- 3119137363456&#45;&#45;3119137369264 -->
<g id="edge32" class="edge">
<title>3119137363456&#45;&#45;3119137369264</title>
<path fill="none" stroke="black" d="M1912.07,-456C1935.02,-456 1968.87,-456 1996.37,-456"/>
</g>
<!-- 3119137359856 -->
<g id="node46" class="node">
<title>3119137359856</title>
<ellipse fill="none" stroke="black" cx="2212.15" cy="-475" rx="56.47" ry="18"/>
<text text-anchor="middle" x="2212.15" y="-469.38" font-family="Times New Roman,serif" font-size="15.00">RELEASE</text>
</g>
<!-- 3119137369264&#45;&#45;3119137359856 -->
<g id="edge30" class="edge">
<title>3119137369264&#45;&#45;3119137359856</title>
<path fill="none" stroke="black" d="M2089.34,-461.09C2110.61,-463.52 2136.21,-466.44 2158.45,-468.98"/>
</g>
<!-- 3119137365904 -->
<g id="node47" class="node">
<title>3119137365904</title>
<ellipse fill="black" stroke="black" cx="2212.15" cy="-437" rx="1.8" ry="1.8"/>
</g>
<!-- 3119137369264&#45;&#45;3119137365904 -->
<g id="edge31" class="edge">
<title>3119137369264&#45;&#45;3119137365904</title>
<path fill="none" stroke="black" d="M2089.34,-450.91C2134.78,-445.72 2199.96,-438.28 2209.86,-437.15"/>
</g>
<!-- 3119137370176 -->
<g id="node49" class="node">
<title>3119137370176</title>
<ellipse fill="black" stroke="black" cx="2043.74" cy="-418" rx="1.8" ry="1.8"/>
</g>
<!-- 3119137367584&#45;&#45;3119137370176 -->
<g id="edge34" class="edge">
<title>3119137367584&#45;&#45;3119137370176</title>
<path fill="none" stroke="black" d="M1911.37,-395.4C1952.71,-402.51 2030.73,-415.93 2041.5,-417.79"/>
</g>
<!-- 3119137366768 -->
<g id="node50" class="node">
<title>3119137366768</title>
<ellipse fill="none" stroke="black" cx="2043.74" cy="-380" rx="56.47" ry="18"/>
<text text-anchor="middle" x="2043.74" y="-374.38" font-family="Times New Roman,serif" font-size="15.00">CODE OK</text>
</g>
<!-- 3119137367584&#45;&#45;3119137366768 -->
<g id="edge35" class="edge">
<title>3119137367584&#45;&#45;3119137366768</title>
<path fill="none" stroke="black" d="M1912.07,-389.16C1932.75,-387.71 1962.29,-385.64 1988.05,-383.83"/>
</g>
<!-- 3119137363840 -->
<g id="node51" class="node">
<title>3119137363840</title>
<ellipse fill="none" stroke="black" cx="2043.74" cy="-326" rx="56.47" ry="18"/>
<text text-anchor="middle" x="2043.74" y="-320.38" font-family="Times New Roman,serif" font-size="15.00">MANUAL</text>
</g>
<!-- 3119137367584&#45;&#45;3119137363840 -->
<g id="edge36" class="edge">
<title>3119137367584&#45;&#45;3119137363840</title>
<path fill="none" stroke="black" d="M1908.29,-381.69C1934.4,-370.88 1977.75,-352.92 2008.15,-340.33"/>
</g>
<!-- 3119137370080 -->
<g id="node53" class="node">
<title>3119137370080</title>
<ellipse fill="black" stroke="black" cx="2043.74" cy="-288" rx="1.8" ry="1.8"/>
</g>
<!-- 3119137364368&#45;&#45;3119137370080 -->
<g id="edge38" class="edge">
<title>3119137364368&#45;&#45;3119137370080</title>
<path fill="none" stroke="black" d="M1912.07,-288C1953.61,-288 2030.85,-288 2041.51,-288"/>
</g>
<!-- 3119137362496 -->
<g id="node54" class="node">
<title>3119137362496</title>
<ellipse fill="none" stroke="black" cx="2043.74" cy="-250" rx="27" ry="18"/>
<text text-anchor="middle" x="2043.74" y="-244.38" font-family="Times New Roman,serif" font-size="15.00">and</text>
</g>
<!-- 3119137364368&#45;&#45;3119137362496 -->
<g id="edge71" class="edge">
<title>3119137364368&#45;&#45;3119137362496</title>
<path fill="none" stroke="black" d="M1910.67,-281.98C1940.06,-274.86 1988.66,-263.1 2017.99,-255.99"/>
</g>
<!-- 3119137366096 -->
<g id="node55" class="node">
<title>3119137366096</title>
<ellipse fill="none" stroke="black" cx="2212.15" cy="-277" rx="27" ry="18"/>
<text text-anchor="middle" x="2212.15" y="-271.38" font-family="Times New Roman,serif" font-size="15.00">xor</text>
</g>
<!-- 3119137362496&#45;&#45;3119137366096 -->
<g id="edge43" class="edge">
<title>3119137362496&#45;&#45;3119137366096</title>
<path fill="none" stroke="black" d="M2070.38,-254.16C2101.65,-259.23 2154.2,-267.76 2185.48,-272.84"/>
</g>
<!-- 3119137370416 -->
<g id="node60" class="node">
<title>3119137370416</title>
<ellipse fill="none" stroke="black" cx="2212.15" cy="-223" rx="27" ry="18"/>
<text text-anchor="middle" x="2212.15" y="-217.38" font-family="Times New Roman,serif" font-size="15.00">xor</text>
</g>
<!-- 3119137362496&#45;&#45;3119137370416 -->
<g id="edge70" class="edge">
<title>3119137362496&#45;&#45;3119137370416</title>
<path fill="none" stroke="black" d="M2070.38,-245.84C2101.65,-240.77 2154.2,-232.24 2185.48,-227.16"/>
</g>
<!-- 3119137363792 -->
<g id="node56" class="node">
<title>3119137363792</title>
<ellipse fill="black" stroke="black" cx="2351.61" cy="-311" rx="1.8" ry="1.8"/>
</g>
<!-- 3119137366096&#45;&#45;3119137363792 -->
<g id="edge39" class="edge">
<title>3119137366096&#45;&#45;3119137363792</title>
<path fill="none" stroke="black" d="M2238.04,-283.16C2274.87,-292.27 2340.52,-308.5 2349.57,-310.74"/>
</g>
<!-- 3119137360240 -->
<g id="node57" class="node">
<title>3119137360240</title>
<ellipse fill="none" stroke="black" cx="2351.61" cy="-273" rx="47" ry="18"/>
<text text-anchor="middle" x="2351.61" y="-267.38" font-family="Times New Roman,serif" font-size="15.00">xor loop</text>
</g>
<!-- 3119137366096&#45;&#45;3119137360240 -->
<g id="edge42" class="edge">
<title>3119137366096&#45;&#45;3119137360240</title>
<path fill="none" stroke="black" d="M2239.33,-276.24C2257.71,-275.7 2282.79,-274.97 2304.49,-274.34"/>
</g>
<!-- 3119137364464 -->
<g id="node58" class="node">
<title>3119137364464</title>
<ellipse fill="none" stroke="black" cx="2498.45" cy="-300" rx="63.83" ry="18"/>
<text text-anchor="middle" x="2498.45" y="-294.38" font-family="Times New Roman,serif" font-size="15.00">CODE NOK</text>
</g>
<!-- 3119137360240&#45;&#45;3119137364464 -->
<g id="edge40" class="edge">
<title>3119137360240&#45;&#45;3119137364464</title>
<path fill="none" stroke="black" d="M2394.51,-280.81C2410.05,-283.71 2427.88,-287.03 2444.29,-290.09"/>
</g>
<!-- 3119137366336 -->
<g id="node59" class="node">
<title>3119137366336</title>
<ellipse fill="black" stroke="black" cx="2498.45" cy="-262" rx="1.8" ry="1.8"/>
</g>
<!-- 3119137360240&#45;&#45;3119137366336 -->
<g id="edge41" class="edge">
<title>3119137360240&#45;&#45;3119137366336</title>
<path fill="none" stroke="black" d="M2398.04,-269.55C2437.2,-266.58 2488.64,-262.67 2496.44,-262.08"/>
</g>
<!-- 3119137366048 -->
<g id="node61" class="node">
<title>3119137366048</title>
<ellipse fill="black" stroke="black" cx="2351.61" cy="-227" rx="1.8" ry="1.8"/>
</g>
<!-- 3119137370416&#45;&#45;3119137366048 -->
<g id="edge44" class="edge">
<title>3119137370416&#45;&#45;3119137366048</title>
<path fill="none" stroke="black" d="M2239.33,-223.76C2276.1,-224.83 2339.65,-226.68 2349.36,-226.96"/>
</g>
<!-- 3119137365184 -->
<g id="node62" class="node">
<title>3119137365184</title>
<ellipse fill="none" stroke="black" cx="2351.61" cy="-189" rx="27" ry="18"/>
<text text-anchor="middle" x="2351.61" y="-183.38" font-family="Times New Roman,serif" font-size="15.00">seq</text>
</g>
<!-- 3119137370416&#45;&#45;3119137365184 -->
<g id="edge69" class="edge">
<title>3119137370416&#45;&#45;3119137365184</title>
<path fill="none" stroke="black" d="M2238.04,-216.84C2262.95,-210.68 2301.06,-201.26 2325.91,-195.11"/>
</g>
<!-- 3119137367872 -->
<g id="node63" class="node">
<title>3119137367872</title>
<ellipse fill="none" stroke="black" cx="2498.45" cy="-201" rx="27" ry="18"/>
<text text-anchor="middle" x="2498.45" y="-195.38" font-family="Times New Roman,serif" font-size="15.00">xor</text>
</g>
<!-- 3119137365184&#45;&#45;3119137367872 -->
<g id="edge57" class="edge">
<title>3119137365184&#45;&#45;3119137367872</title>
<path fill="none" stroke="black" d="M2378.84,-191.17C2405.09,-193.35 2445.24,-196.67 2471.41,-198.84"/>
</g>
<!-- 3119137367104 -->
<g id="node76" class="node">
<title>3119137367104</title>
<ellipse fill="none" stroke="black" cx="2498.45" cy="-147" rx="27" ry="18"/>
<text text-anchor="middle" x="2498.45" y="-141.38" font-family="Times New Roman,serif" font-size="15.00">xor</text>
</g>
<!-- 3119137365184&#45;&#45;3119137367104 -->
<g id="edge68" class="edge">
<title>3119137365184&#45;&#45;3119137367104</title>
<path fill="none" stroke="black" d="M2376.86,-181.97C2403.59,-174.22 2446.36,-161.81 2473.13,-154.05"/>
</g>
<!-- 3119137368784 -->
<g id="node64" class="node">
<title>3119137368784</title>
<ellipse fill="black" stroke="black" cx="2625.28" cy="-238" rx="1.8" ry="1.8"/>
</g>
<!-- 3119137367872&#45;&#45;3119137368784 -->
<g id="edge45" class="edge">
<title>3119137367872&#45;&#45;3119137368784</title>
<path fill="none" stroke="black" d="M2523.52,-208.13C2556.96,-218.05 2614.38,-235.06 2623.15,-237.66"/>
</g>
<!-- 3119137365952 -->
<g id="node65" class="node">
<title>3119137365952</title>
<ellipse fill="none" stroke="black" cx="2625.28" cy="-200" rx="27" ry="18"/>
<text text-anchor="middle" x="2625.28" y="-194.38" font-family="Times New Roman,serif" font-size="15.00">and</text>
</g>
<!-- 3119137367872&#45;&#45;3119137365952 -->
<g id="edge56" class="edge">
<title>3119137367872&#45;&#45;3119137365952</title>
<path fill="none" stroke="black" d="M2525.92,-200.79C2547.11,-200.62 2576.67,-200.38 2597.85,-200.21"/>
</g>
<!-- 3119137367968 -->
<g id="node66" class="node">
<title>3119137367968</title>
<ellipse fill="none" stroke="black" cx="2715.28" cy="-253" rx="27" ry="18"/>
<text text-anchor="middle" x="2715.28" y="-247.38" font-family="Times New Roman,serif" font-size="15.00">xor</text>
</g>
<!-- 3119137365952&#45;&#45;3119137367968 -->
<g id="edge50" class="edge">
<title>3119137365952&#45;&#45;3119137367968</title>
<path fill="none" stroke="black" d="M2645.81,-211.76C2660.29,-220.48 2679.96,-232.33 2694.5,-241.09"/>
</g>
<!-- 3119137368016 -->
<g id="node71" class="node">
<title>3119137368016</title>
<ellipse fill="none" stroke="black" cx="2715.28" cy="-199" rx="27" ry="18"/>
<text text-anchor="middle" x="2715.28" y="-193.38" font-family="Times New Roman,serif" font-size="15.00">xor</text>
</g>
<!-- 3119137365952&#45;&#45;3119137368016 -->
<g id="edge55" class="edge">
<title>3119137365952&#45;&#45;3119137368016</title>
<path fill="none" stroke="black" d="M2652.69,-199.7C2663.82,-199.57 2676.76,-199.43 2687.9,-199.3"/>
</g>
<!-- 3119137366816 -->
<g id="node67" class="node">
<title>3119137366816</title>
<ellipse fill="black" stroke="black" cx="2825.28" cy="-291" rx="1.8" ry="1.8"/>
</g>
<!-- 3119137367968&#45;&#45;3119137366816 -->
<g id="edge46" class="edge">
<title>3119137367968&#45;&#45;3119137366816</title>
<path fill="none" stroke="black" d="M2739.72,-261.25C2769,-271.55 2816.16,-288.14 2823.35,-290.67"/>
</g>
<!-- 3119137368160 -->
<g id="node68" class="node">
<title>3119137368160</title>
<ellipse fill="none" stroke="black" cx="2825.28" cy="-253" rx="47" ry="18"/>
<text text-anchor="middle" x="2825.28" y="-247.38" font-family="Times New Roman,serif" font-size="15.00">xor loop</text>
</g>
<!-- 3119137367968&#45;&#45;3119137368160 -->
<g id="edge49" class="edge">
<title>3119137367968&#45;&#45;3119137368160</title>
<path fill="none" stroke="black" d="M2742.7,-253C2753.32,-253 2765.88,-253 2777.92,-253"/>
</g>
<!-- 3119137369168 -->
<g id="node69" class="node">
<title>3119137369168</title>
<ellipse fill="none" stroke="black" cx="2960.54" cy="-281" rx="48.05" ry="18"/>
<text text-anchor="middle" x="2960.54" y="-275.38" font-family="Times New Roman,serif" font-size="15.00">REJECT</text>
</g>
<!-- 3119137368160&#45;&#45;3119137369168 -->
<g id="edge47" class="edge">
<title>3119137368160&#45;&#45;3119137369168</title>
<path fill="none" stroke="black" d="M2866.99,-261.55C2883.22,-264.96 2901.87,-268.88 2918.16,-272.31"/>
</g>
<!-- 3119137361056 -->
<g id="node70" class="node">
<title>3119137361056</title>
<ellipse fill="black" stroke="black" cx="2960.54" cy="-243" rx="1.8" ry="1.8"/>
</g>
<!-- 3119137368160&#45;&#45;3119137361056 -->
<g id="edge48" class="edge">
<title>3119137368160&#45;&#45;3119137361056</title>
<path fill="none" stroke="black" d="M2871.77,-249.59C2906.75,-246.96 2950.42,-243.68 2958.29,-243.09"/>
</g>
<!-- 3119137358032 -->
<g id="node72" class="node">
<title>3119137358032</title>
<ellipse fill="black" stroke="black" cx="2825.28" cy="-215" rx="1.8" ry="1.8"/>
</g>
<!-- 3119137368016&#45;&#45;3119137358032 -->
<g id="edge51" class="edge">
<title>3119137368016&#45;&#45;3119137358032</title>
<path fill="none" stroke="black" d="M2742.15,-202.83C2771.11,-207.12 2815.03,-213.63 2823.02,-214.81"/>
</g>
<!-- 3119137360960 -->
<g id="node73" class="node">
<title>3119137360960</title>
<ellipse fill="none" stroke="black" cx="2825.28" cy="-177" rx="47" ry="18"/>
<text text-anchor="middle" x="2825.28" y="-171.38" font-family="Times New Roman,serif" font-size="15.00">xor loop</text>
</g>
<!-- 3119137368016&#45;&#45;3119137360960 -->
<g id="edge54" class="edge">
<title>3119137368016&#45;&#45;3119137360960</title>
<path fill="none" stroke="black" d="M2741.6,-193.84C2753.95,-191.33 2769.11,-188.24 2783.06,-185.4"/>
</g>
<!-- 3119137362784 -->
<g id="node74" class="node">
<title>3119137362784</title>
<ellipse fill="none" stroke="black" cx="2960.54" cy="-186" rx="52.26" ry="18"/>
<text text-anchor="middle" x="2960.54" y="-180.38" font-family="Times New Roman,serif" font-size="15.00">STORNO</text>
</g>
<!-- 3119137360960&#45;&#45;3119137362784 -->
<g id="edge52" class="edge">
<title>3119137360960&#45;&#45;3119137362784</title>
<path fill="none" stroke="black" d="M2871.77,-180.07C2883.68,-180.88 2896.6,-181.75 2908.77,-182.57"/>
</g>
<!-- 3119137359280 -->
<g id="node75" class="node">
<title>3119137359280</title>
<ellipse fill="black" stroke="black" cx="2960.54" cy="-148" rx="1.8" ry="1.8"/>
</g>
<!-- 3119137360960&#45;&#45;3119137359280 -->
<g id="edge53" class="edge">
<title>3119137360960&#45;&#45;3119137359280</title>
<path fill="none" stroke="black" d="M2866.63,-168.22C2902.78,-160.35 2951.24,-149.81 2958.59,-148.21"/>
</g>
<!-- 3119137368880 -->
<g id="node77" class="node">
<title>3119137368880</title>
<ellipse fill="black" stroke="black" cx="2625.28" cy="-148" rx="1.8" ry="1.8"/>
</g>
<!-- 3119137367104&#45;&#45;3119137368880 -->
<g id="edge58" class="edge">
<title>3119137367104&#45;&#45;3119137368880</title>
<path fill="none" stroke="black" d="M2525.92,-147.21C2559.7,-147.48 2614.79,-147.92 2623.19,-147.99"/>
</g>
<!-- 3119137359328 -->
<g id="node78" class="node">
<title>3119137359328</title>
<ellipse fill="none" stroke="black" cx="2625.28" cy="-110" rx="27" ry="18"/>
<text text-anchor="middle" x="2625.28" y="-104.38" font-family="Times New Roman,serif" font-size="15.00">and</text>
</g>
<!-- 3119137367104&#45;&#45;3119137359328 -->
<g id="edge67" class="edge">
<title>3119137367104&#45;&#45;3119137359328</title>
<path fill="none" stroke="black" d="M2523.52,-139.87C2545.62,-133.31 2578.21,-123.66 2600.29,-117.11"/>
</g>
<!-- 3119137363120 -->
<g id="node79" class="node">
<title>3119137363120</title>
<ellipse fill="none" stroke="black" cx="2715.28" cy="-110" rx="27" ry="18"/>
<text text-anchor="middle" x="2715.28" y="-104.38" font-family="Times New Roman,serif" font-size="15.00">xor</text>
</g>
<!-- 3119137359328&#45;&#45;3119137363120 -->
<g id="edge63" class="edge">
<title>3119137359328&#45;&#45;3119137363120</title>
<path fill="none" stroke="black" d="M2652.69,-110C2663.82,-110 2676.76,-110 2687.9,-110"/>
</g>
<!-- 3119137361392 -->
<g id="node84" class="node">
<title>3119137361392</title>
<ellipse fill="none" stroke="black" cx="2715.28" cy="-56" rx="27" ry="18"/>
<text text-anchor="middle" x="2715.28" y="-50.38" font-family="Times New Roman,serif" font-size="15.00">xor</text>
</g>
<!-- 3119137359328&#45;&#45;3119137361392 -->
<g id="edge66" class="edge">
<title>3119137359328&#45;&#45;3119137361392</title>
<path fill="none" stroke="black" d="M2645.81,-98.02C2660.4,-89.07 2680.24,-76.89 2694.81,-67.95"/>
</g>
<!-- 3119137358752 -->
<g id="node80" class="node">
<title>3119137358752</title>
<ellipse fill="black" stroke="black" cx="2825.28" cy="-137" rx="1.8" ry="1.8"/>
</g>
<!-- 3119137363120&#45;&#45;3119137358752 -->
<g id="edge59" class="edge">
<title>3119137363120&#45;&#45;3119137358752</title>
<path fill="none" stroke="black" d="M2741.06,-116.19C2770.45,-123.54 2816.38,-135.02 2823.38,-136.77"/>
</g>
<!-- 3119137361344 -->
<g id="node81" class="node">
<title>3119137361344</title>
<ellipse fill="none" stroke="black" cx="2825.28" cy="-99" rx="47" ry="18"/>
<text text-anchor="middle" x="2825.28" y="-93.38" font-family="Times New Roman,serif" font-size="15.00">xor loop</text>
</g>
<!-- 3119137363120&#45;&#45;3119137361344 -->
<g id="edge62" class="edge">
<title>3119137363120&#45;&#45;3119137361344</title>
<path fill="none" stroke="black" d="M2742.43,-107.34C2753.54,-106.21 2766.82,-104.85 2779.41,-103.57"/>
</g>
<!-- 3119137359808 -->
<g id="node82" class="node">
<title>3119137359808</title>
<ellipse fill="none" stroke="black" cx="2960.54" cy="-109" rx="51.21" ry="18"/>
<text text-anchor="middle" x="2960.54" y="-103.38" font-family="Times New Roman,serif" font-size="15.00">REOPEN</text>
</g>
<!-- 3119137361344&#45;&#45;3119137359808 -->
<g id="edge60" class="edge">
<title>3119137361344&#45;&#45;3119137359808</title>
<path fill="none" stroke="black" d="M2871.77,-102.41C2884.14,-103.34 2897.58,-104.35 2910.15,-105.29"/>
</g>
<!-- 3119137373200 -->
<g id="node83" class="node">
<title>3119137373200</title>
<ellipse fill="black" stroke="black" cx="2960.54" cy="-71" rx="1.8" ry="1.8"/>
</g>
<!-- 3119137361344&#45;&#45;3119137373200 -->
<g id="edge61" class="edge">
<title>3119137361344&#45;&#45;3119137373200</title>
<path fill="none" stroke="black" d="M2866.99,-90.45C2903.12,-82.86 2951.29,-72.73 2958.6,-71.2"/>
</g>
<!-- 3119137363600 -->
<g id="node85" class="node">
<title>3119137363600</title>
<ellipse fill="black" stroke="black" cx="2825.28" cy="-56" rx="1.8" ry="1.8"/>
</g>
<!-- 3119137361392&#45;&#45;3119137363600 -->
<g id="edge64" class="edge">
<title>3119137361392&#45;&#45;3119137363600</title>
<path fill="none" stroke="black" d="M2742.7,-56C2771.68,-56 2815.14,-56 2823.03,-56"/>
</g>
<!-- 3119137371808 -->
<g id="node86" class="node">
<title>3119137371808</title>
<ellipse fill="none" stroke="black" cx="2825.28" cy="-18" rx="28.06" ry="18"/>
<text text-anchor="middle" x="2825.28" y="-12.38" font-family="Times New Roman,serif" font-size="15.00">FIN</text>
</g>
<!-- 3119137361392&#45;&#45;3119137371808 -->
<g id="edge65" class="edge">
<title>3119137361392&#45;&#45;3119137371808</title>
<path fill="none" stroke="black" d="M2739.72,-47.75C2757.58,-41.47 2782.11,-32.84 2800.15,-26.49"/>
</g>
<!-- 3119137371520 -->
<g id="node89" class="node">
<title>3119137371520</title>
<ellipse fill="black" stroke="black" cx="1184.86" cy="-502" rx="1.8" ry="1.8"/>
</g>
<!-- 3119137365760&#45;&#45;3119137371520 -->
<g id="edge80" class="edge">
<title>3119137365760&#45;&#45;3119137371520</title>
<path fill="none" stroke="black" d="M1079.36,-495.6C1114.5,-497.75 1173.66,-501.38 1182.69,-501.93"/>
</g>
<!-- 3119137370608 -->
<g id="node90" class="node">
<title>3119137370608</title>
<ellipse fill="none" stroke="black" cx="1184.86" cy="-464" rx="46.47" ry="18"/>
<text text-anchor="middle" x="1184.86" y="-458.38" font-family="Times New Roman,serif" font-size="15.00">EMPTY</text>
</g>
<!-- 3119137365760&#45;&#45;3119137370608 -->
<g id="edge81" class="edge">
<title>3119137365760&#45;&#45;3119137370608</title>
<path fill="none" stroke="black" d="M1078.11,-488.29C1096.77,-484 1122.68,-478.05 1144.18,-473.11"/>
</g>
<!-- 3119137363216 -->
<g id="node92" class="node">
<title>3119137363216</title>
<ellipse fill="black" stroke="black" cx="756.99" cy="-524" rx="1.8" ry="1.8"/>
</g>
<!-- 3119137364320&#45;&#45;3119137363216 -->
<g id="edge86" class="edge">
<title>3119137364320&#45;&#45;3119137363216</title>
<path fill="none" stroke="black" d="M621.09,-520.65C663.55,-521.71 743.66,-523.69 754.71,-523.97"/>
</g>
<!-- 3119137367728 -->
<g id="node93" class="node">
<title>3119137367728</title>
<ellipse fill="none" stroke="black" cx="756.99" cy="-486" rx="79.09" ry="18"/>
<text text-anchor="middle" x="756.99" y="-480.38" font-family="Times New Roman,serif" font-size="15.00">ZDBC_BEHAN</text>
</g>
<!-- 3119137364320&#45;&#45;3119137367728 -->
<g id="edge87" class="edge">
<title>3119137364320&#45;&#45;3119137367728</title>
<path fill="none" stroke="black" d="M620.02,-514.69C640.83,-510.3 671.18,-503.89 697.93,-498.25"/>
</g>
</g>
</svg>
